<?xml version="1.0" encoding="UTF-8"?>
<svg version="1.1" xmlns="http://www.w3.org/2000/svg" width="24" height="24">
<path d="M0 0 C2.94691505 2.35753204 4.92616129 4.32323193 5.62109375 8.1171875 C5.62986234 13.7466241 5.31335432 17.51557056 1.1875 21.75 C-2.0625 22.625 -2.0625 22.625 -4.8125 22.75 C-4.8125 20.44 -4.8125 18.13 -4.8125 15.75 C-3.4925 15.42 -2.1725 15.09 -0.8125 14.75 C-0.8125 11.45 -0.8125 8.15 -0.8125 4.75 C-1.8025 5.245 -1.8025 5.245 -2.8125 5.75 C-4.6875 5.8828125 -4.6875 5.8828125 -6.8125 5.875 C-7.864375 5.87886719 -7.864375 5.87886719 -8.9375 5.8828125 C-10.8125 5.75 -10.8125 5.75 -12.8125 4.75 C-12.8125 8.05 -12.8125 11.35 -12.8125 14.75 C-11.4925 15.08 -10.1725 15.41 -8.8125 15.75 C-8.8125 18.06 -8.8125 20.37 -8.8125 22.75 C-12.76599203 22.57029582 -14.38343489 22.1903563 -17.1875 19.3125 C-19.31533516 14.6476306 -19.77763015 10.79648559 -18.8125 5.75 C-14.95738312 -1.56295071 -7.29507695 -3.24225642 0 0 Z " fill="#171A4F" transform="translate(18.8125,1.25)"/>
</svg>
